<?xml version="1.0" encoding="UTF-8"?>
<!DOCTYPE svg PUBLIC "-//W3C//DTD SVG 1.1//EN" "http://www.w3.org/Graphics/SVG/1.1/DTD/svg11.dtd">
<svg xmlns="http://www.w3.org/2000/svg" version="1.1" width="200px" height="60px" style="shape-rendering:geometricPrecision; text-rendering:geometricPrecision; image-rendering:optimizeQuality; fill-rule:evenodd; clip-rule:evenodd" xmlns:xlink="http://www.w3.org/1999/xlink">
<g><path style="opacity:0.551" fill="black" d="M -0.5,56.5 C -0.5,55.8333 -0.5,55.1667 -0.5,54.5C 9.21189,38.0907 18.7119,21.424 28,4.5C 29.6667,1.83333 31.3333,1.83333 33,4.5C 41.6667,19.8333 50.3333,35.1667 59,50.5C 59.813,52.4357 60.313,54.4357 60.5,56.5C 50.4986,53.833 40.4986,51.1663 30.5,48.5C 20.2021,51.3244 9.86873,53.9911 -0.5,56.5 Z M 26.5,13.5 C 27.8831,5.44345 30.5497,4.77678 34.5,11.5C 34.3333,11.8333 34.1667,12.1667 34,12.5C 31.0124,8.56494 28.5124,8.89828 26.5,13.5 Z M 26.5,13.5 C 26.573,15.0269 25.9063,16.0269 24.5,16.5C 24.427,14.9731 25.0937,13.9731 26.5,13.5 Z M 34.5,19.5 C 33.1851,18.5244 31.8518,17.5244 30.5,16.5C 29.1482,17.5244 27.8149,18.5244 26.5,19.5C 29.2378,11.5421 31.9045,11.5421 34.5,19.5 Z M 36.5,16.5 C 34.9153,15.9976 34.4153,14.9976 35,13.5C 36.0386,14.2438 36.5386,15.2438 36.5,16.5 Z M 26.5,19.5 C 26.2624,21.4044 25.2624,22.7377 23.5,23.5C 23.7376,21.5956 24.7376,20.2623 26.5,19.5 Z M 34.5,19.5 C 36.7565,20.5618 37.9232,22.2285 38,24.5C 36.1978,23.2107 35.0312,21.5441 34.5,19.5 Z M 38.5,30.5 C 35.853,28.1891 33.1864,25.8558 30.5,23.5C 27.8136,25.8558 25.147,28.1891 22.5,30.5C 24.68,26.8234 27.3466,23.4901 30.5,20.5C 33.6534,23.4901 36.32,26.8234 38.5,30.5 Z M 21.5,26.5 C 21.573,28.0269 20.9063,29.0269 19.5,29.5C 19.427,27.9731 20.0937,26.9731 21.5,26.5 Z M 42.5,39.5 C 38.4895,36.8296 34.4895,34.1629 30.5,31.5C 26.4819,34.1731 22.4819,36.8398 18.5,39.5C 20.1122,37.7024 21.6122,35.7024 23,33.5C 25.3013,31.2018 27.8013,29.2018 30.5,27.5C 31.1667,27.6667 31.8333,27.8333 32.5,28C 36.4491,31.4696 39.7824,35.3029 42.5,39.5 Z M 22.5,30.5 C 22.1744,33.0014 20.8411,34.1681 18.5,34C 19.7051,32.6244 21.0384,31.4577 22.5,30.5 Z M 38.5,30.5 C 39.8333,31.1667 40.8333,32.1667 41.5,33.5C 39.5,33.5 38.5,32.5 38.5,30.5 Z M 43.5,44.5 C 39.0379,42.7688 34.7046,40.7688 30.5,38.5C 26.2954,40.7688 21.9621,42.7688 17.5,44.5C 21.2646,40.4483 25.5979,37.115 30.5,34.5C 35.4209,37.0898 39.7542,40.4231 43.5,44.5 Z M 28.5,41.5 C 35.2728,43.2614 41.6062,46.0947 47.5,50C 41.8754,48.7026 36.2087,47.2026 30.5,45.5C 25.094,46.9151 19.7607,48.5818 14.5,50.5C 13.3044,50.1543 13.3044,49.6543 14.5,49C 19.5829,47.038 24.2496,44.538 28.5,41.5 Z"/></g>
<g><path style="opacity:0.616" fill="black" d="M 81.5,23.5 C 82.4959,23.4142 83.3292,23.7476 84,24.5C 85.1667,27.5 86.3333,30.5 87.5,33.5C 87.1667,33.8333 86.8333,34.1667 86.5,34.5C 83.8333,31.8333 81.1667,31.8333 78.5,34.5C 78.1667,34.1667 77.8333,33.8333 77.5,33.5C 78.8489,30.141 80.1822,26.8077 81.5,23.5 Z"/></g>
<g><path style="opacity:0.567" fill="black" d="M 96.5,23.5 C 98.924,23.1924 101.257,23.5258 103.5,24.5C 104.953,26.6439 104.62,28.4773 102.5,30C 104.312,31.6269 104.479,33.1269 103,34.5C 101.606,33.3867 100.439,32.0534 99.5,30.5C 98.7189,31.7287 98.2189,33.062 98,34.5C 97.3333,35.8333 96.6667,35.8333 96,34.5C 95.2446,30.7446 95.4113,27.0779 96.5,23.5 Z M 98.5,25.5 C 99.5,25.5 100.5,25.5 101.5,25.5C 101.5,26.5 101.5,27.5 101.5,28.5C 100.5,28.5 99.5,28.5 98.5,28.5C 98.5,27.5 98.5,26.5 98.5,25.5 Z"/></g>
<g><path style="opacity:0.558" fill="black" d="M 112.5,23.5 C 115.572,23.1826 118.572,23.5159 121.5,24.5C 120.675,25.3857 119.675,25.719 118.5,25.5C 118.905,29.0479 118.405,32.3812 117,35.5C 115.595,32.3812 115.095,29.0479 115.5,25.5C 113.821,25.7148 112.821,25.0481 112.5,23.5 Z"/></g>
<g><path style="opacity:0.782" fill="black" d="M 130.5,23.5 C 131.787,24.8714 132.453,26.7047 132.5,29C 132.167,30.8333 131.833,32.6667 131.5,34.5C 130.511,30.8927 130.177,27.226 130.5,23.5 Z"/></g>
<g><path style="opacity:0.595" fill="black" d="M 142.5,23.5 C 145.714,24.5284 147.548,26.8618 148,30.5C 149.527,28.779 150.527,26.779 151,24.5C 152.011,23.6634 153.178,23.33 154.5,23.5C 154.924,27.7032 154.424,31.7032 153,35.5C 151.883,34.0506 151.216,32.3839 151,30.5C 149.944,35.2135 148.277,35.5469 146,31.5C 145.667,32.5 145.333,33.5 145,34.5C 144.333,35.8333 143.667,35.8333 143,34.5C 142.501,30.8484 142.335,27.1817 142.5,23.5 Z"/></g>
<g><path style="opacity:0.59" fill="black" d="M 166.5,23.5 C 168.124,23.3601 169.29,24.0267 170,25.5C 170.78,28.5117 171.947,31.3451 173.5,34C 173,34.5 172.5,35 172,35.5C 169.333,31.5 166.667,31.5 164,35.5C 163.5,35 163,34.5 162.5,34C 164.326,30.6882 165.66,27.1882 166.5,23.5 Z"/></g>
<g><path style="opacity:0.622" fill="black" d="M 181.5,23.5 C 184.385,24.545 186.552,26.545 188,29.5C 188.192,27.4233 188.692,25.4233 189.5,23.5C 190.489,27.1073 190.823,30.774 190.5,34.5C 189.325,34.719 188.325,34.3857 187.5,33.5C 185.249,28.0595 184.082,28.3928 184,34.5C 183.333,35.8333 182.667,35.8333 182,34.5C 181.501,30.8484 181.335,27.1817 181.5,23.5 Z"/></g>
</svg>
